# xmcd
#
# Track frame offsets: 
#        200
#        11015
#        23110
#        36067
#        48562
#        60982
#        70557
#        83497
#        94862
#        105442
#        116987
#        128060
#        140820
#        153455
#        165875
#        178570
#        191220
#        201570
#        213220
#        225220
#        236142
#        247247
#        258030
#
# Disc length: 3609 seconds
#
# Revision: 11
# Processed by: cddbd v1.5.2PL0 Copyright (c) Steve Scherf et al.
# Submitted via: ExactAudioCopyFreeDBPlugin 1.0
#
DISCID=340e1717
DTITLE=Various Artist - Phil Spector:  Back to Mono [box set]
DYEAR=1991
DGENRE=Rhythm and Blues
TTITLE0=The Teddy Bears - To Know Him is to Love Him
TTITLE1=Ray Peterson - Corrine, Corrina
TTITLE2=Ben E. King - Spanish Harlem
TTITLE3=Curtis Lee - Pretty Little Angel Eyes
TTITLE4=Gene Pitney - Every Breath I Take
TTITLE5=The Paris Sisters - I Love How You Love Me
TTITLE6=Curtis Lee - Under the Moon of Love
TTITLE7=The Crystals - There's No Other (Like My Baby)
TTITLE8=The Crystals - Uptown
TTITLE9=The Crystals - He Hit Me (And it Felt Like a Kiss)
TTITLE10=The Crystals - He's a Rebel
TTITLE11=Bob B. Soxx and The Blue Jeans - Zip-A-Dee-Doo-Dah
TTITLE12=The Alley Cats - Puddin' N' Tain
TTITLE13=The Crystals - He's Sure the Boy I Love
TTITLE14=Bob B. Soxx and The Blue Jeans - Why Do Lovers Break Each Oth
TTITLE14=ers Hearts?
TTITLE15=Darlene Love - (Today I Met) The Boy I'm Gonna Marry
TTITLE16=The Crystals - Da Doo Ron Ron
TTITLE17=The Crystals - Heartbreaker
TTITLE18=Veronica - Why Don't They Let Us Fall in Love
TTITLE19=Darlene Love - Chapel of Love
TTITLE20=Bob B. Soxx and The Blue Jeans - Not Too Young to Get Married
TTITLE21=Darlene Love - Wait 'Til My Bobby Gets Home
TTITLE22=The Crystals - All Grown Up
EXTD=
EXTT0=
EXTT1=
EXTT2=
EXTT3=
EXTT4=
EXTT5=
EXTT6=
EXTT7=
EXTT8=
EXTT9=
EXTT10=
EXTT11=
EXTT12=
EXTT13=
EXTT14=
EXTT15=
EXTT16=
EXTT17=
EXTT18=
EXTT19=
EXTT20=
EXTT21=
EXTT22=
PLAYORDER=
